<svg xmlns="http://www.w3.org/2000/svg" width="166" height="295" fill="none"><g fill="#fff" filter="url('#filter0_d_420_5')"><path d="M4.88 176.6c13.92-1.44 18.72-6 19.2-16.8 2.64-46.56.96-94.32 1.2-140.88 0-6.24-7.68-11.04-19.2-12.24v-2.4h30l88.56 143.28c0-53.52.48-101.04-.72-121.68-.72-12.24-6-17.52-25.92-19.2v-2.4h51.36v2.4c-14.16 1.44-18.48 5.76-19.2 16.08-3.36 52.56-.96 104.64-1.44 156.24h-3.6L28.88 23c.24 50.4.48 105.12 1.2 136.56.24 9.12 3.84 15.12 23.76 17.04v2.4H4.88z"/><path d="M44.52 286.6c12-1.44 17.52-4.32 17.52-12V130.36c0-9.36-5.52-12.24-18.24-13.68v-2.4h110.88l4.8 39.36h-2.4c-5.04-27.84-17.04-36.24-50.4-36.24H95.64c-12.48 0-18.48 3.36-18.48 12.96v63.12c13.2 0 35.52.24 47.28-.96 11.04-.96 14.64-8.16 16.56-27.6h2.64v61.92H141c-2.4-21.84-5.76-28.56-16.56-29.28-11.76-.96-34.08-.72-47.28-.96v78c0 7.92 6 10.8 22.8 12v2.4H44.52z"/></g><defs><filter id="filter0_d_420_5" width="164.6" height="294.72" x=".88" y=".28" color-interpolation-filters="sRGB" filterUnits="userSpaceOnUse"><feFlood flood-opacity="0" result="BackgroundImageFix"/><feColorMatrix in="SourceAlpha" result="hardAlpha" values="0 0 0 0 0 0 0 0 0 0 0 0 0 0 0 0 0 0 127 0"/><feOffset dx="1" dy="1"/><feGaussianBlur stdDeviation="2.5"/><feComposite in2="hardAlpha" operator="out"/><feColorMatrix values="0 0 0 0 0 0 0 0 0 0 0 0 0 0 0 0 0 0 0.25 0"/><feBlend in2="BackgroundImageFix" result="effect1_dropShadow_420_5"/><feBlend in="SourceGraphic" in2="effect1_dropShadow_420_5" result="shape"/></filter></defs></svg>