<svg width="166" height="295" viewBox="0 0 166 295" fill="none" xmlns="http://www.w3.org/2000/svg">
<g filter="url('#filter0_d_420_5')">
<path d="M4.87988 176.6C18.7999 175.16 23.5999 170.6 24.0799 159.8C26.7199 113.24 25.0399 65.4803 25.2799 18.9203C25.2799 12.6803 17.5999 7.88027 6.07988 6.68027V4.28027H36.0799L124.64 147.56C124.64 94.0403 125.12 46.5203 123.92 25.8803C123.2 13.6403 117.92 8.36028 97.9999 6.68027V4.28027H149.36V6.68027C135.2 8.12028 130.88 12.4403 130.16 22.7603C126.8 75.3203 129.2 127.4 128.72 179H125.12L28.8799 23.0003C29.1199 73.4003 29.3599 128.12 30.0799 159.56C30.3199 168.68 33.9199 174.68 53.8399 176.6V179H4.87988V176.6Z" fill="white"></path>
<path d="M44.5199 286.6C56.5199 285.16 62.0399 282.28 62.0399 274.6V130.36C62.0399 121 56.5199 118.12 43.7999 116.68V114.28H154.68L159.48 153.64H157.08C152.04 125.8 140.04 117.4 106.68 117.4H95.6399C83.1599 117.4 77.1599 120.76 77.1599 130.36V193.48C90.3599 193.48 112.68 193.72 124.44 192.52C135.48 191.56 139.08 184.36 141 164.92H143.64V226.84H141C138.6 205 135.24 198.28 124.44 197.56C112.68 196.6 90.3599 196.84 77.1599 196.6V274.6C77.1599 282.52 83.1599 285.4 99.9599 286.6V289H44.5199V286.6Z" fill="white"></path>
</g>
<defs>
<filter id="filter0_d_420_5" x="0.879883" y="0.280273" width="164.6" height="294.72" filterUnits="userSpaceOnUse" color-interpolation-filters="sRGB">
<feFlood flood-opacity="0" result="BackgroundImageFix"></feFlood>
<feColorMatrix in="SourceAlpha" type="matrix" values="0 0 0 0 0 0 0 0 0 0 0 0 0 0 0 0 0 0 127 0" result="hardAlpha"></feColorMatrix>
<feOffset dx="1" dy="1"></feOffset>
<feGaussianBlur stdDeviation="2.5"></feGaussianBlur>
<feComposite in2="hardAlpha" operator="out"></feComposite>
<feColorMatrix type="matrix" values="0 0 0 0 0 0 0 0 0 0 0 0 0 0 0 0 0 0 0.25 0"></feColorMatrix>
<feBlend mode="normal" in2="BackgroundImageFix" result="effect1_dropShadow_420_5"></feBlend>
<feBlend mode="normal" in="SourceGraphic" in2="effect1_dropShadow_420_5" result="shape"></feBlend>
</filter>
</defs>
</svg>
