<svg width="156" height="285" viewBox="0 0 156 285" fill="none" xmlns="http://www.w3.org/2000/svg">
<path d="M0.879883 172.6C14.7999 171.16 19.5999 166.6 20.0799 155.8C22.7199 109.24 21.0399 61.4803 21.2799 14.9203C21.2799 8.68028 13.5999 3.88027 2.07988 2.68027V0.280273H32.0799L120.64 143.56C120.64 90.0403 121.12 42.5203 119.92 21.8803C119.2 9.64028 113.92 4.36028 93.9999 2.68027V0.280273H145.36V2.68027C131.2 4.12028 126.88 8.44028 126.16 18.7603C122.8 71.3203 125.2 123.4 124.72 175H121.12L24.8799 19.0003C25.1199 69.4003 25.3599 124.12 26.0799 155.56C26.3199 164.68 29.9199 170.68 49.8399 172.6V175H0.879883V172.6Z" fill="white"></path>
<path d="M40.5199 282.6C52.5199 281.16 58.0399 278.28 58.0399 270.6V126.36C58.0399 117 52.5199 114.12 39.7999 112.68V110.28H150.68L155.48 149.64H153.08C148.04 121.8 136.04 113.4 102.68 113.4H91.6399C79.1599 113.4 73.1599 116.76 73.1599 126.36V189.48C86.3599 189.48 108.68 189.72 120.44 188.52C131.48 187.56 135.08 180.36 137 160.92H139.64V222.84H137C134.6 201 131.24 194.28 120.44 193.56C108.68 192.6 86.3599 192.84 73.1599 192.6V270.6C73.1599 278.52 79.1599 281.4 95.9599 282.6V285H40.5199V282.6Z" fill="white"></path>
</svg>
